<svg xmlns="http://www.w3.org/2000/svg" version="1.1" viewBox="-5.0 -10.0 110.0 135.0">
 <path d="m20.918 12.895c3.9414 0.003907 7.6406 1.543 10.414 4.332 3.707 3.707 5.1836 9.168 3.8477 14.25-0.21094 0.80078-1.0352 1.2812-1.832 1.0703-0.80078-0.21094-1.2812-1.0312-1.0703-1.832 1.082-4.1172-0.0625-8.3672-3.0664-11.371-2.2109-2.2227-5.1523-3.4453-8.293-3.4531h-0.019531c-3.1484 0-6.1055 1.2266-8.332 3.4492-5.5273 5.5312-8.5742 12.883-8.5742 20.711 0 7.8242 3.0469 15.18 8.5742 20.711 2.2266 2.2266 5.1836 3.4492 8.332 3.4492h0.019531c3.1406-0.003907 6.0859-1.2305 8.2891-3.4492 2.9688-2.9453 4.1445-7.3008 3.0703-11.375-0.21094-0.80078 0.26953-1.6211 1.0703-1.832 0.79688-0.21094 1.6211 0.26953 1.832 1.0703 1.3438 5.1055-0.13672 10.57-3.8555 14.258-2.7656 2.7812-6.4648 4.3203-10.406 4.3242h-0.019531c-3.9492 0-7.6602-1.5352-10.453-4.3281-6.0977-6.0977-9.4531-14.203-9.4531-22.832s3.3555-16.734 9.4531-22.832c2.793-2.793 6.5039-4.3281 10.453-4.3281 0.003906 0.007812 0.011718 0.007812 0.019531 0.007812zm58.18 0h-0.019531c-3.9414 0.003907-7.6406 1.543-10.41 4.3281-3.7109 3.7109-5.1836 9.1719-3.8477 14.254 0.21094 0.80078 1.0312 1.2812 1.832 1.0703 0.80078-0.21094 1.2773-1.0312 1.0664-1.832-1.082-4.1172 0.0625-8.3672 3.0703-11.375 2.207-2.2188 5.1523-3.4453 8.293-3.4492h0.015625c3.1484 0 6.1055 1.2266 8.332 3.4492 5.5273 5.5312 8.5742 12.883 8.5742 20.711 0 7.8242-3.0469 15.18-8.5742 20.711-2.2266 2.2266-5.1836 3.4492-8.332 3.4492h-0.015625c-3.1406-0.003907-6.0859-1.2305-8.3008-3.457-2.9609-2.9375-4.1367-7.293-3.0625-11.367 0.21094-0.80078-0.26953-1.6211-1.0664-1.832-0.80078-0.21094-1.6211 0.26953-1.832 1.0703-1.3438 5.1055 0.13281 10.57 3.8438 14.25 2.7734 2.7891 6.4727 4.3281 10.414 4.332h0.019531c3.9492 0 7.6602-1.5352 10.453-4.3281 6.0977-6.0977 9.4531-14.203 9.4531-22.832s-3.3555-16.734-9.4531-22.832c-2.793-2.7812-6.5039-4.3203-10.453-4.3203zm-43.16 21.695c3.3594 0 6.5273 1.3125 8.9102 3.6992 2.3711 2.4023 3.6719 5.5664 3.6719 8.9141v24.266c0 0.19141 0.054688 0.23828 0.10547 0.28516 0.027344 0.023438 0.054688 0.046875 0.078125 0.070313 0.11328 0.11328 0.21094 0.14844 0.3125 0.15234 0.65625-0.050781 1.3086-0.050781 1.9648 0 0.097656-0.007812 0.21484-0.039062 0.375-0.19141 0.0625-0.058594 0.11719-0.125 0.11719-0.32031v-24.266c0-3.3633 1.3125-6.5273 3.6992-8.9141 2.3516-2.3828 5.5078-3.6992 8.8828-3.6992h13.637c3.0156 0 5.4688 2.4531 5.4688 5.4688 0 3.0156-2.4531 5.4688-5.4688 5.4688h-13.633c-0.45312 0-0.86328 0.16797-1.1523 0.47266-0.33984 0.33984-0.51953 0.76953-0.51953 1.2031v24.094c0 1.4609 0.81641 2.668 2.1875 3.2344 5.207 2.1641 8.0703 5.2734 8.0703 8.7578 0 5.1289-6.5117 9.4961-16.199 10.867-0.78906 0.11719-1.3477 0.75391-1.3477 1.5469v0.56641c0 1.5-1.2188 2.7188-2.7188 2.7188h-4.7617c-1.5 0-2.7188-1.2188-2.7188-2.7188v-0.56641c0-0.79297-0.55859-1.4297-1.3555-1.5508-9.6797-1.3672-16.191-5.7383-16.191-10.867 0-3.4883 2.875-6.6016 8.1016-8.7578 1.3516-0.56641 2.1602-1.7734 2.1602-3.2344v-24.09c0-0.43359-0.17969-0.86328-0.49609-1.1797-0.3125-0.32812-0.72266-0.49609-1.1797-0.49609h-13.633c-3.0156 0-5.4688-2.4531-5.4688-5.4688 0-3.0156 2.4531-5.4688 5.4688-5.4688zm6.7852 5.8125c-1.8125-1.8125-4.2227-2.8125-6.7812-2.8125h-13.637c-1.3594 0-2.4688 1.1055-2.4688 2.4688 0 1.3594 1.1055 2.4688 2.4688 2.4688h13.637c1.2812 0 2.4648 0.49609 3.3242 1.3984 0.85938 0.86328 1.3516 2.0352 1.3516 3.2734v24.094c0 2.668-1.5352 4.9688-4.0117 6.0039-3.9727 1.6406-6.25 3.8203-6.25 5.9844 0 3.4609 5.7305 6.7812 13.621 7.8984 2.2773 0.33984 3.9258 2.2383 3.9258 4.5195v0.28516h4.1992v-0.28516c0-2.2812 1.6484-4.1797 3.918-4.5156 7.9023-1.1172 13.629-4.4375 13.629-7.8984 0-2.1602-2.2656-4.3438-6.2188-5.9844-2.4922-1.0273-4.043-3.3281-4.043-6.0078l-0.003907-24.094c0-1.2422 0.48828-2.4141 1.375-3.3008 0.83594-0.87891 2.0195-1.375 3.3008-1.375h13.637c1.3594 0 2.4688-1.1055 2.4688-2.4688 0-1.3594-1.1055-2.4688-2.4688-2.4688l-13.637 0.003906c-2.5664 0-4.9648 1-6.7539 2.8125-1.8242 1.8242-2.8281 4.2383-2.8281 6.8008v24.266c0 0.99219-0.37109 1.8633-1.0742 2.5156-0.69531 0.64844-1.5508 0.99609-2.4648 0.99609-0.046875 0-0.089844-0.003907-0.13672-0.007813-0.26562-0.023437-0.53125-0.019531-0.80078-0.023437-0.26562 0-0.53125-0.003907-0.80078 0.023437-0.97266 0.09375-1.8711-0.30859-2.5742-0.99219-0.72266-0.64453-1.1016-1.5117-1.1016-2.5156l-0.003907-24.266c0-2.5547-0.99219-4.9688-2.7969-6.7969zm13.426-39.406c-0.82813 0-1.5 0.67188-1.5 1.5v27.582c0 1.082 0.11328 2.1367 0.34375 3.2305 0.14844 0.70703 0.77344 1.1875 1.4648 1.1875 0.10547 0 0.20703-0.011719 0.3125-0.03125 0.80859-0.17188 1.3281-0.96875 1.1562-1.7773-0.1875-0.88672-0.27734-1.7383-0.27734-2.6094v-27.582c0-0.82812-0.67188-1.5-1.5-1.5zm-12.613 33.504c0.69141 0 1.3164-0.48438 1.4648-1.1875 0.23047-1.0938 0.34375-2.1484 0.34375-3.2305l0.003906-27.586c0-0.82812-0.67188-1.5-1.5-1.5s-1.5 0.67188-1.5 1.5v27.582c0 0.87109-0.089844 1.7227-0.27734 2.6094-0.17187 0.8125 0.34766 1.6055 1.1562 1.7773 0.10156 0.023437 0.20703 0.035156 0.30859 0.035156z"/>
</svg>