<svg xmlns="http://www.w3.org/2000/svg" xmlns:xlink="http://www.w3.org/1999/xlink" version="1.1" x="0px" y="0px" viewBox="0 0 100 125" style="enable-background:new 0 0 100 100;" xml:space="preserve"><path d="M90.93,53.51c-3.76-15.47-14.87-24.74-14.99-24.84c-3.48-2.86-7.86-4.07-11.72-3.23c-2.51,0.55-4.4,1.9-5.32,3.8  c-1.2,2.47-1.38,11.03-1.19,19.59c-0.61-0.48-1.4-1.28-2.08-2.55c-0.91-2.03-0.85-18.83-0.26-33.89c0.01-0.28-0.05-0.55-0.17-0.79  c-0.28-1.99-1.73-4.4-5.07-4.4c-3.76,0-5.13,3.07-5.13,5.13c0,0.01,0,0.02,0,0.03c0,0.01,0,0.02,0,0.03  c0.44,11.71,0.99,31.08,0.6,33.24c-0.2,1.11-1.23,2.09-2.25,2.8c0.01-9.07-0.33-17.12-1.37-19.21c-0.94-1.88-2.84-3.22-5.37-3.77  c-3.95-0.87-8.45,0.33-12.04,3.2c-0.12,0.09-11.53,9.37-15.4,24.85C5.88,66.61,5.14,85.13,7.01,88.86c0.99,1.97,2.6,3.27,4.66,3.75  c0.59,0.14,1.21,0.2,1.85,0.2c2.71,0,5.82-1.19,8.66-3.35c4.74-3.61,11.57-5.11,12.9-5.38c0.37-0.07,0.74-0.12,1.11-0.17  c1.94-0.24,4.6-0.58,5.87-4.39c0.31-0.93,0.83-9.58,1.1-19.5c1.39-0.98,4.3-2.69,6.61-2.69c3.24,0,5.18,0.87,7.66,3.46  c0.21,0.22,0.47,0.37,0.75,0.45c0.23,4.1,0.46,7.11,0.56,7.76c0.18,1.12,0.18,2.39,0.17,3.63c-0.01,3.96-0.03,9.39,7.51,10.33  c9.08,1.13,9.91,1.64,12.76,4.15c3.01,2.64,6.18,5.04,9.1,5.04c0.34,0,0.67-0.03,1-0.1c1.6-0.32,2.86-1.4,3.73-3.2  C94.84,85.11,94.12,66.62,90.93,53.51z M51.7,41.66c-0.34,0.09-0.84,0.16-1.58,0.16c-0.4,0-0.71-0.02-0.99-0.06  c0.01-1.33,0-2.88-0.03-4.55c0.3,0.03,0.63,0.05,1.01,0.05c0.56,0,1.03-0.04,1.42-0.11C51.58,38.78,51.63,40.29,51.7,41.66z   M51.53,36c-0.33,0.07-0.78,0.12-1.4,0.12c-0.42,0-0.75-0.02-1.03-0.06c-0.02-1.46-0.05-3-0.09-4.56c0.33,0.04,0.7,0.06,1.12,0.06  c0.55,0,1-0.04,1.38-0.1C51.5,33.01,51.51,34.54,51.53,36z M51.51,30.31c-0.33,0.07-0.77,0.12-1.39,0.12  c-0.47,0-0.85-0.03-1.15-0.07c-0.04-1.53-0.08-3.07-0.12-4.57c0.36,0.05,0.77,0.09,1.27,0.09c0.57,0,1.05-0.04,1.44-0.11  C51.54,27.26,51.52,28.79,51.51,30.31z M51.59,24.6c-0.34,0.08-0.8,0.14-1.46,0.14c-0.56,0-0.98-0.04-1.3-0.1  c-0.03-1.18-0.07-2.33-0.1-3.42c0.39,0.07,0.85,0.11,1.4,0.11c0.62,0,1.12-0.05,1.54-0.13C51.63,22.29,51.61,23.43,51.59,24.6z   M51.85,14.75c-0.05,1.51-0.11,3.3-0.16,5.27c-0.34,0.09-0.84,0.16-1.57,0.16c-0.65,0-1.1-0.06-1.44-0.13  c-0.07-2.07-0.13-3.88-0.18-5.26c0.46,0.15,0.98,0.26,1.62,0.26C50.82,15.05,51.37,14.92,51.85,14.75z M48.96,46.24  c0.1-0.53,0.15-1.71,0.17-3.33c0.3,0.03,0.62,0.05,1,0.05c0.68,0,1.21-0.06,1.65-0.15c0.13,1.84,0.31,3.33,0.55,4.28  c-0.18,0.15-0.72,0.43-2.2,0.43c-0.69,0-1.17-0.06-1.51-0.14C48.76,47.02,48.88,46.64,48.96,46.24z M50.12,10.61  c1.15,0,1.56,0.66,1.67,1.33c-0.1,0.35-0.46,0.83-1.67,0.83c-1.21,0-1.57-0.47-1.67-0.82C48.57,11.27,48.97,10.61,50.12,10.61z   M26.69,31.32c3.29-2.63,6.9-3.03,9.17-2.53c1.47,0.32,2.58,1.04,3.04,1.96c0.82,1.64,1.08,10.14,1.04,19.55  c-1.13,1.07-2.97,2.85-5.61,5.49c-4.52,4.52-13,10.25-17.94,11.24c-2.97,0.59-4.93-0.11-6.08-0.85c0.48-3.92,1.18-7.99,2.15-11.85  C16.06,39.96,26.59,31.4,26.69,31.32z M12.44,89.27c-1.07-0.25-1.85-0.88-2.38-1.94c-0.36-0.71-0.6-2.97-0.64-6.17  c1.79,2.03,4.85,4.58,9.68,6.28C16.71,88.99,14.24,89.69,12.44,89.27z M35.76,80.51c-0.45,0.06-0.91,0.12-1.36,0.21  c-2.02,0.4-8.97,2.02-14.16,5.91c-5.96-1.91-9.27-5.24-10.83-7.3c0.03-3.38,0.26-7.53,0.76-11.93c0.98,0.54,2.31,0.99,4.07,0.99  c0.72,0,1.51-0.07,2.37-0.25c5.21-1.04,13.79-6.81,18.52-11.55c2.09-2.09,3.67-3.62,4.8-4.71c-0.09,11.89-0.63,24.67-1.12,26.56  C38.23,80.2,37.51,80.29,35.76,80.51z M49.78,53.91c-2.32,0-4.74,1.05-6.52,2.03c0.02-1.18,0.04-2.36,0.05-3.53  c1.08-0.52,3.46-1.84,4.79-4c0.49,0.15,1.14,0.25,2.02,0.25c1.34,0,2.15-0.22,2.65-0.51c1.91,3.35,4.44,4.4,4.73,4.51  c0.1,0.04,0.21,0.04,0.31,0.06c0.04,1.34,0.09,2.66,0.15,3.93C55.53,54.7,53.12,53.91,49.78,53.91z M66.85,79.56  c-4.35-0.54-4.53-2.52-4.51-6.93c0-1.37,0.01-2.79-0.22-4.18c-0.07-0.42-0.15-1.31-0.24-2.52c0.83,1.09,1.9,2.22,3.28,3.25  c0.96,0.72,2.21,1.46,3.54,2.25c4.39,2.6,10.18,6.03,12.03,12.49C77.5,81.23,75.39,80.63,66.85,79.56z M89.95,87.34  c-0.58,1.19-1.15,1.31-1.34,1.34c-1.67,0.33-4.75-2.09-6.42-3.51c-1.41-7.91-8-11.83-12.91-14.73c-1.35-0.8-2.52-1.49-3.44-2.18  c-1.97-1.48-3.27-3.18-4.12-4.61c-0.59-9.64-1.22-29.91,0.24-32.93c0.45-0.93,1.54-1.64,2.98-1.96c0.5-0.11,1.08-0.17,1.7-0.17  c2.07,0,4.69,0.7,7.12,2.7c0.1,0.09,10.34,8.63,13.84,23.01C91.02,68.36,91.02,85.14,89.95,87.34z"/></svg>