<svg xmlns="http://www.w3.org/2000/svg" xmlns:xlink="http://www.w3.org/1999/xlink" version="1.1" x="0px" y="0px" viewBox="0 0 100 125" style="enable-background:new 0 0 100 100;" xml:space="preserve"><path d="M78.73,19.53c-5.9-6.45-14.51-10.07-24.9-10.49c-7.9-0.31-22.28,1.1-29.82,14.12c-4.91,8.48-4.11,12.34-3.19,16.8  c0.18,0.87,0.37,1.77,0.51,2.72c0.3,2-0.17,4.02-1.34,5.7l-5.62,8.06c-0.77,1.1-0.95,2.51-0.49,3.77c0.46,1.26,1.51,2.22,2.81,2.57  l2.91,0.78c0.36,0.1,0.65,0.33,0.82,0.65c0.17,0.33,0.2,0.7,0.08,1.04l-0.8,2.34c-0.14,0.42,0.01,0.88,0.37,1.14l1.39,0.98  l-0.54,0.79c-0.68,1.01-0.54,2.35,0.33,3.19l1.08,1.04l0.36,3.85c0.14,1.52,0.98,2.84,2.29,3.63c1.31,0.78,2.87,0.89,4.33,0.28  l7.99-3.93V90c0,0.27,0.11,0.52,0.29,0.71S38.05,91,38.32,91l33.8,0c0.55,0,1-0.45,1-1V76.77c0-4.61,1.46-9.04,4.22-12.8  c3.85-5.24,8.53-13.38,8.97-22.35C86.73,33.17,84.04,25.33,78.73,19.53z M84.32,41.52c-0.42,8.48-4.9,16.24-8.59,21.27  c-3.02,4.11-4.61,8.95-4.61,13.98V89l-31.8,0V76.96c0-0.35-0.18-0.67-0.47-0.85c-0.16-0.1-0.34-0.15-0.53-0.15  c-0.15,0-0.3,0.03-0.44,0.1l-9.37,4.61c-0.81,0.34-1.72,0.28-2.47-0.17c-0.76-0.45-1.24-1.22-1.32-2.1l-0.4-4.22  c-0.02-0.24-0.13-0.46-0.3-0.62l-1.34-1.3c-0.17-0.17-0.2-0.43-0.07-0.63l1.09-1.61c0.31-0.45,0.19-1.06-0.25-1.38l-1.57-1.11  l0.56-1.63c0.3-0.87,0.22-1.83-0.21-2.63c-0.43-0.81-1.18-1.41-2.07-1.64l-2.91-0.78c-0.68-0.18-1.2-0.66-1.44-1.32  s-0.15-1.37,0.25-1.94l5.62-8.06c1.46-2.1,2.06-4.63,1.67-7.14c-0.15-1.01-0.35-1.93-0.53-2.83c-0.88-4.23-1.57-7.57,2.96-15.39  c7.01-12.11,20.55-13.42,28.01-13.12c9.85,0.39,17.98,3.8,23.51,9.84C82.2,26.28,84.71,33.61,84.32,41.52z"/><path d="M75.74,24.35c0-2.76-2.19-5.02-4.92-5.13c-1.34-2.13-3.66-3.43-6.21-3.43c-1.04,0-2.07,0.22-3.01,0.65  c-2.17-2.17-5.12-3.4-8.19-3.4c-3.11,0-6.07,1.25-8.25,3.45c-2.18-1.06-5.02-1.07-7.48,0.02c-2.33,1.03-3.96,2.87-4.54,5.1  c-3.59,0.96-6.21,3.75-7.07,7.59c-0.87,3.91,0.34,7.82,3.1,10.16c-0.18,2.08,0.49,4.04,1.88,5.47c1.12,1.15,2.59,1.81,4.04,1.85  c0.94,2.13,3.08,3.56,5.46,3.56c1.36,0,2.67-0.47,3.72-1.31c1.99,1.47,4.41,2.28,6.89,2.28c1.79,0,3.56-0.42,5.15-1.21  c1,0.52,3.31,1.46,6.67,1.2c1.46-0.12,4.37,2.63,7.36,6.81c0.47,0.67,1.25,1.06,2.07,1.06c0.91,0,1.73-0.47,2.2-1.26  c0.46-0.79,0.47-1.73,0.03-2.53l-3.44-6.15c1.35-1.04,3.95-3.56,4.78-7.97c2.11-2.18,3.27-5.03,3.27-8.07  c0-3.14-1.28-6.14-3.52-8.32C75.73,24.64,75.74,24.49,75.74,24.35z M74.34,39.97C74.34,39.98,74.34,39.98,74.34,39.97  C74.34,39.98,74.34,39.98,74.34,39.97c-0.02,0.01-0.79,0.74-2.17,1.3c0.89-2.25,0.08-4.18,0.03-4.29c-0.22-0.51-0.8-0.74-1.32-0.52  c-0.51,0.22-0.74,0.81-0.52,1.32c0.01,0.02,0.95,2.28-1.15,4.38c-2.17,2.17-4.71,1.74-4.81,1.72c-0.54-0.1-1.07,0.25-1.17,0.79  c-0.11,0.54,0.25,1.07,0.79,1.17c0.05,0.01,0.43,0.08,1.03,0.08c1.23,0,3.37-0.32,5.32-2.12c1.19-0.16,2.21-0.49,3.02-0.86  c-1.35,3.45-3.88,4.96-4.01,5.03c-0.48,0.27-0.65,0.88-0.38,1.36l3.88,6.94c0.14,0.25,0.04,0.46-0.01,0.54  c-0.05,0.08-0.19,0.27-0.47,0.27c-0.18,0-0.34-0.08-0.44-0.23c-2.52-3.51-6.08-7.64-8.92-7.64c-0.07,0-0.14,0-0.21,0.01  c-2.02,0.15-3.56-0.2-4.57-0.56c0.51-0.51,1.04-1.2,1.36-2.1c0.18-0.52-0.09-1.09-0.61-1.27c-0.52-0.19-1.09,0.09-1.27,0.61  c-0.48,1.37-1.8,2.05-1.83,2.06c-0.01,0-0.01,0.01-0.02,0.01c-0.01,0.01-0.02,0-0.03,0.01c-1.43,0.8-3.05,1.22-4.69,1.22  c-1.15,0-2.27-0.21-3.33-0.6c1.98-0.46,3.33-1.48,3.41-1.54c0.44-0.34,0.51-0.96,0.18-1.4c-0.34-0.44-0.96-0.52-1.4-0.18  c-0.03,0.02-2.6,1.95-5.54,1.17c-2.64-0.71-3.2-2.91-3.22-3.02c-0.12-0.54-0.65-0.87-1.19-0.75c-0.54,0.12-0.88,0.65-0.76,1.19  c0.03,0.12,0.57,2.42,2.92,3.79c-0.52,0.25-1.09,0.39-1.68,0.39c-1.76,0-3.33-1.18-3.81-2.87c-0.14-0.48-0.61-0.79-1.1-0.71  c-1.09,0.15-2.26-0.3-3.15-1.22c-1.08-1.1-1.54-2.69-1.26-4.35c0.06-0.37-0.09-0.75-0.39-0.97c-2.45-1.81-3.55-5.14-2.81-8.49  c0.73-3.27,3.03-5.6,6.15-6.22c0.41-0.08,0.72-0.41,0.79-0.82c0.31-1.85,1.59-3.41,3.52-4.26c1.53-0.68,3.24-0.81,4.71-0.44  c-2.68,1.04-3.62,3.17-3.67,3.28c-0.21,0.51,0.02,1.09,0.53,1.31c0.13,0.05,0.26,0.08,0.39,0.08c0.39,0,0.76-0.23,0.92-0.61  c0.01-0.02,1.07-2.44,4.59-2.61c3.73-0.2,5.56,1.88,5.63,1.96c0.35,0.42,0.98,0.48,1.41,0.13c0.42-0.35,0.48-0.98,0.13-1.41  c-0.09-0.11-2.06-2.4-5.96-2.66c1.73-1.49,3.93-2.33,6.24-2.33c2.76,0,5.4,1.2,7.23,3.29c0.01,0.01,0.02,0.01,0.03,0.02  c0.01,0.01,0.01,0.02,0.02,0.03c0.07,0.07,1.6,1.7,1.61,4.72c-1.13-0.32-2.26-0.3-3.06-0.15c-0.54,0.1-0.9,0.62-0.79,1.17  c0.1,0.54,0.63,0.9,1.16,0.8c0.39-0.07,3.86-0.6,4.71,2.88c0.11,0.46,0.52,0.76,0.97,0.76c0.08,0,0.16-0.01,0.24-0.03  c0.54-0.13,0.87-0.67,0.74-1.21c-0.37-1.52-1.11-2.54-1.99-3.23c0.25-2.83-0.62-4.86-1.33-6.01c0.54-0.18,1.11-0.29,1.68-0.29  c2.01,0,3.83,1.12,4.75,2.92c0.18,0.36,0.56,0.58,0.97,0.54l0.26-0.03c1.32,0,2.45,0.83,2.91,1.99c-1.21-0.93-2.34-1.16-2.42-1.17  c-0.54-0.11-1.05,0.26-1.16,0.79c-0.1,0.54,0.25,1.06,0.79,1.17c0.11,0.02,2.63,0.57,3.55,3.92c0.99,3.61-0.63,5.83-0.7,5.92  c-0.34,0.44-0.26,1.07,0.18,1.4c0.18,0.14,0.4,0.21,0.61,0.21c0.3,0,0.59-0.13,0.79-0.39c0.08-0.1,1.61-2.14,1.41-5.46  c0.44,1.11,0.68,2.29,0.68,3.5C77.24,35.71,76.21,38.15,74.34,39.97z"/><path d="M41.19,23.98c-0.1,0.05-2.05,1.01-2.71,3.1c-1.13-0.16-3.3-0.13-5.41,1.73c-2.93,2.58-2.02,5.99-1.98,6.14  c0.12,0.44,0.52,0.73,0.96,0.73c0.09,0,0.18-0.01,0.26-0.04c0.53-0.14,0.84-0.69,0.71-1.22c-0.03-0.1-0.59-2.37,1.37-4.11  c1.61-1.42,3.22-1.36,3.9-1.24c0.22,2.25,1.72,3.73,1.8,3.8c0.19,0.19,0.44,0.28,0.69,0.28c0.26,0,0.52-0.1,0.72-0.3  c0.38-0.39,0.38-1.03-0.02-1.41c-0.01-0.01-1.34-1.34-1.21-3.15c0.12-1.66,1.72-2.47,1.78-2.5c0.5-0.24,0.71-0.83,0.47-1.33  C42.28,23.95,41.69,23.74,41.19,23.98z"/><path d="M52.59,33.86c0.09-2.83,1.74-4.18,1.83-4.26c0.44-0.33,0.52-0.96,0.19-1.4c-0.33-0.44-0.96-0.53-1.4-0.19  c-0.12,0.09-2.77,2.16-2.62,6.42c-3.69,1.52-4.18,4.71-4.2,4.85c-0.08,0.54,0.3,1.04,0.84,1.12c0.05,0.01,0.1,0.01,0.15,0.01  c0.48,0,0.91-0.35,0.99-0.85c0.02-0.1,0.44-2.52,3.57-3.5c3.37-1.06,5.71,0.5,5.8,0.56c0.45,0.32,1.08,0.21,1.39-0.25  c0.32-0.45,0.21-1.08-0.25-1.39C58.77,34.9,56.26,33.2,52.59,33.86z"/></svg>