<svg xmlns="http://www.w3.org/2000/svg" version="1.1" viewBox="-5.0 -10.0 110.0 135.0">
 <path d="m19.051 25.57c0.22656-7.3086 5.7266-13.07 12.32-13.07 1.1211 0 2.207 0.16406 3.2383 0.47266 1.7227-2.8203 4.6523-4.6406 7.9375-4.6406 1.5859 0 3.7148 0.082031 5.4961 0.60156 0.71094 0.20703 1.3711 0.48438 1.9531 0.83203 0.58203-0.34766 1.2383-0.625 1.9531-0.83203 1.7812-0.51562 3.9102-0.60156 5.4961-0.60156 3.2852 0 6.2148 1.8203 7.9336 4.6406 1.0352-0.30859 2.1211-0.47266 3.2422-0.47266 6.5977 0 12.094 5.7578 12.32 13.07 4.8164 1.6211 8.3906 6.5547 8.3906 12.453 0 1.2461-0.16016 2.4531-0.45703 3.5938 1.7305 2.2578 2.7891 5.1836 2.7891 8.3867s-1.0547 6.1289-2.7891 8.3828c0.29688 1.1406 0.45703 2.3477 0.45703 3.5977 0 5.8984-3.5742 10.828-8.3906 12.453-0.22656 7.3086-5.7266 13.07-12.32 13.07-1.1211 0-2.207-0.16406-3.2383-0.47266-1.7227 2.8203-4.6523 4.6406-7.9375 4.6406-1.207 0-2.7031-0.41406-4.1602-1.1211-1.1836-0.57422-2.3359-1.332-3.293-2.1367-0.95313 0.80469-2.1094 1.5664-3.293 2.1367-1.457 0.70703-2.9531 1.1211-4.1602 1.1211-3.2852 0-6.2148-1.8203-7.9336-4.6406-1.0352 0.30859-2.1211 0.47266-3.2422 0.47266-6.5977 0-12.094-5.7578-12.32-13.07-4.8164-1.6211-8.3906-6.5547-8.3906-12.453 0-1.2461 0.16016-2.4531 0.45703-3.5938-1.7305-2.2578-2.7891-5.1836-2.7891-8.3867s1.0547-6.1289 2.7891-8.3828c-0.29688-1.1406-0.45703-2.3477-0.45703-3.5977 0-5.8984 3.5742-10.828 8.3906-12.453zm2.7266 3.6133c-0.089844 0.027344-0.1875 0.050781-0.28516 0.066406-3.8242 0.58984-6.668 4.3398-6.668 8.7734 0 1.1914 0.20312 2.3242 0.57812 3.3633 0.26562 0.73438 0.09375 1.5586-0.44141 2.1289-1.5273 1.6328-2.4648 3.9375-2.4648 6.4844 0 2.5352 0.92578 4.8281 2.4414 6.457 0.66406 0.375 2.7227 1.3984 5.4961 1.3828 1.1484-0.007813 2.0898 0.91797 2.0977 2.0703 0.007812 1.1484-0.91797 2.0898-2.0703 2.0977-2.2617 0.015626-4.1836-0.48047-5.5859-1.0078-0.03125 0.32422-0.046875 0.64844-0.046875 0.98047 0 4.4336 2.8438 8.1836 6.668 8.7734 0.21875 0.035156 0.42578 0.10156 0.61328 0.19531 1.7617 0.14844 5.4961 0.36719 8.8555-0.097657 1.1367-0.15625 2.1914 0.64063 2.3516 1.7773 0.15625 1.1367-0.64062 2.1914-1.7773 2.3516-2.9102 0.40234-6.0781 0.34766-8.2539 0.22266 0.52734 4.543 3.8945 8.1289 8.0898 8.1289 1.1836 0 2.3047-0.29297 3.3164-0.80859 0.53125-0.27344 1.1562-0.30469 1.7109-0.085938 0.55859 0.21875 0.99219 0.66797 1.1992 1.2305 0.80078 2.207 2.6875 3.832 4.9492 3.832 0.68359 0 1.5156-0.30078 2.3398-0.70312 1.1523-0.55469 2.293-1.3359 3.0234-2.1172v-12.398c-0.039062-0.31641-0.34766-2.2305-2.1133-3.5391-1.5195-1.1289-3.9961-1.7266-7.9531-1.0547-1.1367 0.19141-2.2109-0.57422-2.4023-1.707-0.19141-1.1367 0.57422-2.2109 1.707-2.4023 5.2578-0.89062 8.6094 0.10938 10.766 1.5586v-1.6094-19.801-5.0391c-0.15234-1.0273-1.4258-7.8359-7.8945-6.4414-1.1211 0.24219-2.2344-0.47266-2.4766-1.5977-0.24219-1.1211 0.47266-2.2344 1.5977-2.4766 4.0273-0.87109 6.832 0.20703 8.7734 1.9375v-16.773c-0.44141-0.29688-1.0547-0.42969-1.6758-0.55469-1.2578-0.25391-2.625-0.27734-3.6914-0.27734-1.8672 0-3.4805 1.1094-4.4375 2.7383 1.2031 1.168 2.8125 2.9961 3.4492 4.9492 0.35938 1.0898-0.23828 2.2695-1.332 2.6289-1.0898 0.35938-2.2695-0.23828-2.6289-1.332-0.73437-2.2422-3.4375-4.1914-3.4375-4.1914-0.050781-0.039063-0.097656-0.078125-0.14062-0.11719-0.82813-0.32813-1.7227-0.50781-2.6523-0.50781-4.3008 0-7.7305 3.7656-8.125 8.4648 1 0.11719 2.1953 0.33594 3.3984 0.73828 3.3242 1.1094 6.5898 3.5195 6.6875 8.4648 0.019531 1.1484-0.89453 2.1016-2.043 2.1211-1.1484 0.019531-2.1016-0.89453-2.1211-2.043-0.050781-2.7422-1.9922-3.9766-3.8398-4.5898-1.3555-0.45312-2.707-0.59766-3.5469-0.64062zm40.109-13.945c-0.95703-1.6289-2.5703-2.7383-4.4375-2.7383-1.0664 0-2.4336 0.027344-3.6914 0.27734-0.62109 0.125-1.2344 0.25781-1.6758 0.55469v21.984c1.9414-1.7305 4.7422-2.8086 8.7734-1.9375 1.125 0.24219 1.8398 1.3516 1.5977 2.4766s-1.3516 1.8398-2.4766 1.5977c-6.4648-1.3945-7.7383 5.4141-7.8945 6.4414v12.605c2.1562-1.4492 5.5078-2.4492 10.766-1.5586 1.1328 0.19141 1.8984 1.2656 1.707 2.3984-0.19141 1.1367-1.2656 1.8984-2.4023 1.707-3.957-0.66797-6.4336-0.070313-7.9531 1.0547-1.7695 1.3086-2.0742 3.2227-2.1133 3.5391v8.5547 12.48c0.73047 0.78516 1.8711 1.5625 3.0234 2.1172 0.82812 0.40234 1.6562 0.70312 2.3398 0.70312 2.2617 0 4.1484-1.625 4.9492-3.832 0.20312-0.5625 0.64062-1.0117 1.1992-1.2305 0.55469-0.21875 1.1797-0.1875 1.7109 0.085937 1.0117 0.51953 2.1328 0.80859 3.3164 0.80859 4.1953 0 7.5625-3.5859 8.0898-8.1289-2.1758 0.12109-5.3398 0.17969-8.2539-0.22266-1.1406-0.16016-1.9336-1.2109-1.7773-2.3516 0.16016-1.1406 1.2109-1.9336 2.3516-1.7773 3.3594 0.46484 7.0938 0.24609 8.8555 0.097656 0.19141-0.09375 0.39453-0.16406 0.61328-0.19531 3.8242-0.58984 6.668-4.3398 6.668-8.7734 0-0.14453-0.003906-0.28906-0.007813-0.42969-1.332 0.52734-3.2656 0.87109-6.0117 0.40234-1.1328-0.19141-1.8984-1.2695-1.707-2.4023 0.19531-1.1328 1.2695-1.8984 2.4023-1.707 3.3633 0.57422 4.8047-0.86719 4.8047-0.86719 0.070312-0.11719 0.15234-0.23047 0.24219-0.32812 0.042969-0.054687 0.089844-0.10938 0.13672-0.16406 1.5273-1.6328 2.4648-3.9375 2.4648-6.4844s-0.9375-4.8555-2.4648-6.4844c-0.53516-0.57031-0.70312-1.3945-0.44141-2.1289 0.37109-1.0391 0.57812-2.1758 0.57812-3.3633 0-4.4336-2.8438-8.1836-6.668-8.7734-0.097656-0.015625-0.19141-0.039063-0.28516-0.066406-0.83984 0.046874-2.1914 0.19141-3.5469 0.64062-1.8477 0.61719-3.7891 1.8516-3.8398 4.5898-0.023437 1.1484-0.97266 2.0664-2.1211 2.043-1.1484-0.023437-2.0664-0.97266-2.043-2.1211 0.097657-4.9453 3.3633-7.3555 6.6875-8.4648 1.2031-0.39844 2.3984-0.61719 3.3984-0.73828-0.39453-4.6992-3.8242-8.4648-8.125-8.4648-0.92969 0-1.8242 0.17969-2.6523 0.50781-0.042968 0.039063-0.089844 0.078125-0.14062 0.11719 0 0-2.7031 1.9492-3.4375 4.1914-0.35938 1.0938-1.5352 1.6914-2.6289 1.332s-1.6914-1.5352-1.332-2.6289c0.63672-1.9492 2.2461-3.7812 3.4492-4.9492z" fill-rule="evenodd"/>
 <path d="m34.285 47.898c0.40234-1.0742 1.6055-1.6211 2.6836-1.2148s1.6211 1.6094 1.2148 2.6836c-1.1641 3.1016-5.1484 4.7422-9.0234 3.2852-3.8711-1.457-5.7891-5.3203-4.625-8.418 0.40234-1.0781 1.6055-1.6211 2.6836-1.2148 1.0781 0.40234 1.6211 1.6055 1.2148 2.6836-0.45703 1.2109 0.67578 2.4805 2.1914 3.0508 1.5156 0.57031 3.2031 0.35938 3.6602-0.85156z" fill-rule="evenodd"/>
 <path d="m67.73 47.656c-0.51953 1.0273-1.7695 1.4414-2.7969 0.92188s-1.4414-1.7734-0.92188-2.8008c1.4922-2.9531 5.6328-4.1562 9.3242-2.293 3.6953 1.8672 5.1836 5.9102 3.6953 8.8672-0.51953 1.0234-1.7734 1.4375-2.8008 0.92188-1.0273-0.51953-1.4414-1.7734-0.92188-2.8008 0.58203-1.1562-0.40625-2.5391-1.8516-3.2695-1.4453-0.73047-3.1445-0.70312-3.7305 0.45312z" fill-rule="evenodd"/>
</svg>