<svg xmlns="http://www.w3.org/2000/svg" data-name="Line copy 2" viewBox="0 0 256 320" x="0px" y="0px"><title>Human Organ Line</title><path d="M191.5737,125.5615c-4.8027-19.6123-14.5215-23.7656-26.8257-29.0234-2.9766-1.2713-6.0557-2.59-9.3851-4.2319-3.6921-5.79-4.771-10.6913-3.1886-14.5826,3.0249-7.4385,15.1465-10.457,20.2173-11.41a7.2648,7.2648,0,0,0,5.8584-8.335L176.3462,46.08a7.3479,7.3479,0,0,0-6.8833-6.1523,111.7014,111.7014,0,0,0-13.76.1728,24.4856,24.4856,0,0,1,.6592-9.1806l.44-1.3525a7.3183,7.3183,0,0,0-4.6909-9.2109l-2.7456-.8936a7.32,7.32,0,0,0-9.21,4.6914l-.4463,1.373a41.8691,41.8691,0,0,0-1.4941,15.4518A63.1814,63.1814,0,0,1,132.9717,28.89l-.4062-1.3838a7.307,7.307,0,0,0-9.0728-4.9531l-2.7676.8125a7.3092,7.3092,0,0,0-4.9546,9.0732l.4067,1.3838A79.1415,79.1415,0,0,0,122.82,49.3356a38.681,38.681,0,0,1-9.262-12.3619l-.5034-1.3271a7.3173,7.3173,0,0,0-9.4268-4.2412l-2.6987,1.0234A7.316,7.316,0,0,0,96.2719,40.13a7.2328,7.2328,0,0,0-2.8657.9063l-.1338.0752a1.3156,1.3156,0,0,1-1.12.0986,1.2736,1.2736,0,0,1-.77-.7705,102.8236,102.8236,0,0,0-6.5244-14.1582,7.2154,7.2154,0,0,0-4.5327-3.5205,7.3414,7.3414,0,0,0-5.7007.8564l-3.5684,2.208a7.2926,7.2926,0,0,0-2.5835,9.6914c5.31,9.7178,8.4375,19.7021,7.5493,24.0059a50.2962,50.2962,0,0,0-5.2512,21.4689c-1.6363,1.8538-3.2847,3.8533-4.9475,6.036a3.034,3.034,0,0,0-.2295.35c-10.9628,19.5275-8.79,35.4807-3.3123,46.9747-1.5836,15.9331,1.2371,33.7316,11.3113,52.19a102.5258,102.5258,0,0,0,49.2656,45.5459c12.0439,5.252,23.63,7.377,30.312,7.377a14.58,14.58,0,0,0,4.5908-.5547c.2437-.0879.5156-.1748.812-.2715,5.3608-1.7344,17.915-5.7959,24.34-43.62,2.1792-12.8281,4.4526-22.49,6.2793-30.2539C192.853,149.2061,195.063,139.8154,191.5737,125.5615ZM145.4146,27.3828l.4463-1.373a1.3111,1.3111,0,0,1,1.6494-.8408l2.7446.8926a1.3114,1.3114,0,0,1,.8408,1.65l-.4541,1.3975a30.3117,30.3117,0,0,0-.8973,11.6357c-1.8713.2731-3.6772.613-5.4332,1.0037A35.146,35.146,0,0,1,145.4146,27.3828Zm-23.48,4.749-.4067-1.3838a1.31,1.31,0,0,1,.8877-1.626l2.769-.8135a1.2985,1.2985,0,0,1,.9961.1074,1.3012,1.3012,0,0,1,.6284.7793l.4082,1.3916a71.888,71.888,0,0,0,6.4617,14.5354,49.0945,49.0945,0,0,0-4.9468,2.4423A70.0488,70.0488,0,0,1,121.9341,32.1318ZM123.8306,58.76c9.4351-9.4883,24.6953-13.8076,45.3511-12.8379a1.3211,1.3211,0,0,1,1.24,1.1055l1.9038,11.8984a1.2969,1.2969,0,0,1-1.0415,1.4912c-7.5,1.4092-20.6782,5.2373-24.667,15.0459a17.2084,17.2084,0,0,0-.3549,11.44c-1.6266-1.086-3.2725-2.2214-4.9523-3.3823-1.728-1.1943-3.4619-2.3926-5.2036-3.5527v-.001c-6.1163-4.0745-12.7585-8.0146-19.8523-9.4722A33.7971,33.7971,0,0,1,123.8306,58.76ZM103.0571,38.0381l2.6978-1.0234a1.31,1.31,0,0,1,1.689.7607l.5244,1.38A44.3208,44.3208,0,0,0,119.6,54.5067l-.0241.0226a39.63,39.63,0,0,0-3.5866,4.1519,48.34,48.34,0,0,1-13.18-17.605l-.5117-1.3486A1.3117,1.3117,0,0,1,103.0571,38.0381Zm1.7749,18.3438a2.9807,2.9807,0,0,0,.3881-.1891,59.1849,59.1849,0,0,0,7.5179,7.5809,40.9659,40.9659,0,0,0-2.664,6.1313q-.6145.013-1.2331.0563a18.5986,18.5986,0,0,0-14.7257-4.3182A23.9976,23.9976,0,0,1,104.832,56.3818ZM73.7378,32.64a1.2922,1.2922,0,0,1,.4751-1.7119l3.5684-2.208a1.3154,1.3154,0,0,1,1.0264-.1543,1.2761,1.2761,0,0,1,.8.62,96.7259,96.7259,0,0,1,6.1367,13.3086,7.277,7.277,0,0,0,4.3486,4.3516,7.3747,7.3747,0,0,0,6.2515-.5791,1.32,1.32,0,0,1,1.1313-.0928,1.2834,1.2834,0,0,1,.7725.79l1.8052,5.0654A31.18,31.18,0,0,0,88.145,63.9043l-.0312.0557c-.021.0342-.0415.0693-.0615.1045a33.0457,33.0457,0,0,0-1.9685,4.1921,43.0742,43.0742,0,0,0-8.6445,6.0292,42.2505,42.2505,0,0,1,4.0823-12.3384,2.9924,2.9924,0,0,0,.2358-.6133C84.1328,52.3379,75.4937,35.8525,73.7378,32.64ZM70.7236,90.4961C80.8374,77.2705,90.2676,70.7148,97.99,71.5254a12.0152,12.0152,0,0,1,2.4147.5126,34.2364,34.2364,0,0,0-7.92,4.837c-11.3627,9.1019-23.04,25.1562-28.0659,45.1934C62.5051,112.0573,64.5952,101.4871,70.7236,90.4961Zm8.1357,93.1709c-14.0181-25.6836-11.99-48.291-7.8208-62.7334,4.5132-15.6328,13.9326-30.3525,25.1973-39.375,4.9087-3.9316,9.5742-5.6436,14.3467-5.6436,6.8359,0,13.8916,3.5127,22.1963,9.0459V84.96c1.7139,1.1426,3.4194,2.3213,5.1191,3.4961,3.766,2.6024,7.6336,5.2673,11.528,7.4817,2.7068,3.8962,9.4052,15.7839,5.3654,33.39a37.2859,37.2859,0,0,0-1.459,4.8433,98.8182,98.8182,0,0,1-4.4009,9.9674c-2.26,1.0126-13.1242,5.8069-25.8184,10.1807-.5106.1446-1.0524.3347-1.6054.5478-2.1218.7159-4.2855,1.4149-6.4609,2.079-12.2875-1.575-13.1727-13.0569-13.2059-13.5829a3,3,0,0,0-5.9912.3281,21.0684,21.0684,0,0,0,9.2457,15.9857c-7.8964,1.8879-15.31,2.8972-20.6959,2.069a3,3,0,1,0-.9121,5.93,32.6385,32.6385,0,0,0,4.9434.3447c6.4874,0,14.37-1.4894,22.3438-3.6216a22.9529,22.9529,0,0,0-2.3336,6.85,3,3,0,1,0,5.9092,1.043c1.3611-7.714,6.3784-10.707,9.3472-11.8245q.4772-.1608.9506-.3224a10.5385,10.5385,0,0,1,1.28-.3062,2.9736,2.9736,0,0,0,1.4644-.6453c6.7309-2.3753,12.7773-4.79,17.1849-6.6335q-.5852,1.106-1.183,2.2328c-11.0724,20.8762-24.65,46.5-17.815,71.9345C110.0926,220.1274,91.8367,207.4443,78.8594,183.667Zm104.4927-20.2764c-1.8462,7.8457-4.1436,17.6094-6.354,30.624-5.8159,34.2393-15.9463,37.5166-20.272,38.916-.3652.1182-.7.2266-.9976.334-1.4371.496-10.7441.2462-22.9791-3.82-9.1568-24.4843,4.7411-50.7157,15.9454-71.84,1.6949-3.1957,3.3175-6.2551,4.8022-9.1851a14.3273,14.3273,0,0,0,6.6089,7.9155,20.9887,20.9887,0,0,0,4.1773,1.8287c1.8644,1.6544,7.7064,7.953,3.1743,18.7172a3,3,0,1,0,5.5293,2.3281c3.63-8.6189,2.1265-15.6464-.5977-20.4423a18.3557,18.3557,0,0,0,10.25-5.3722,3,3,0,1,0-4.4395-4.0352,11.9867,11.9867,0,0,1-11.2107,3.3427,2.9617,2.9617,0,0,0-1.33-.394,15.5107,15.5107,0,0,1-2.576-1.1821c-5.57-3.1837-5.0266-10.5507-3.9537-15.3447a46.0131,46.0131,0,0,0,1.465-4.9c.01-.0432.0173-.0849.0272-.1281l.0012-.0054c3.0211-13.0822.8142-23.4143-2.012-30.3272,1.3108.5759,2.5847,1.1245,3.78,1.6354,12.0142,5.1338,19.2661,8.2324,23.3555,24.9326C188.8926,139.8428,186.9243,148.207,183.3521,163.3906Z"/></svg>