<svg xmlns="http://www.w3.org/2000/svg" version="1.1" viewBox="-5.0 -10.0 110.0 135.0">
 <path d="m50.004 4.0078c-16.457 0-31.352 10.359-37.059 25.777-0.28906 0.77734-1.1523 1.1797-1.9297 0.88672-0.77734-0.28516-1.1719-1.1484-0.88672-1.9258 6.1445-16.594 22.168-27.738 39.875-27.738 17.688 0 33.703 11.148 39.844 27.738 0.28906 0.77734-0.10938 1.6406-0.88672 1.9258-0.17188 0.0625-0.34766 0.09375-0.51953 0.09375-0.60938 0-1.1836-0.375-1.4062-0.98047-5.7109-15.418-20.59-25.777-37.031-25.777zm-38.609 37.961h-4.5352c-0.82812 0-1.5 0.67188-1.5 1.5s0.67188 1.5 1.5 1.5h4.5352c0.82812 0 1.5-0.67188 1.5-1.5s-0.67188-1.5-1.5-1.5zm87.59 15.699v39.824c0 0.82812-0.67188 1.5-1.5 1.5l-17.859 0.003906h-77.129c-0.82812 0-1.5-0.67188-1.5-1.5v-39.828c0-0.82812 0.67188-1.5 1.5-1.5s1.5 0.67188 1.5 1.5v32.996h2.4961c1.5039 0 2.7227-1.2109 2.7227-2.6953v-20.578c0-0.82812 0.67188-1.5 1.5-1.5s1.5 0.67188 1.5 1.5v20.578c0 3.1406-2.5664 5.6953-5.7227 5.6953l-2.4961 0.003907v2.3281h14.887v-17.352c0-0.82812 0.67188-1.5 1.5-1.5 0.82813 0 1.5 0.67188 1.5 1.5v4.4023l3.043-5.2773c-6.6992-4.9297-11.93-11.832-14.793-19.582-0.28906-0.77734 0.10938-1.6406 0.88672-1.9297 0.77734-0.28906 1.6406 0.10938 1.9258 0.88672 2.625 7.1016 7.3867 13.441 13.488 18.012l4.4375-7.6953c-7.2617-5.7969-11.566-14.66-11.566-23.996 0-16.91 13.77-30.668 30.695-30.668 16.91 0 30.668 13.758 30.668 30.668 0 9.332-4.3008 18.195-11.559 23.992l4.4336 7.6719c6.1562-4.582 10.816-10.754 13.488-17.98 0.28516-0.77734 1.1523-1.1719 1.9258-0.88672 0.77734 0.28516 1.1758 1.1484 0.88672 1.9297-2.9141 7.8867-8.0117 14.629-14.781 19.574l3.0586 5.2891v-4.4102c0-0.82812 0.67188-1.5 1.5-1.5s1.5 0.67188 1.5 1.5v17.352h14.859v-2.3281h-2.4961c-3.1562 0-5.7227-2.5547-5.7227-5.6953v-20.578c0-0.82812 0.67188-1.5 1.5-1.5s1.5 0.67188 1.5 1.5v20.578c0 1.4844 1.2227 2.6953 2.7227 2.6953h2.4961l0.003906-33c0-0.82812 0.67188-1.5 1.5-1.5 0.83203 0 1.5 0.67188 1.5 1.5zm-76.004 29.484h54.047l-5.1641-8.9375c-0.007812-0.011719-0.015625-0.015625-0.023437-0.023438-0.050782-0.074218-0.09375-0.15625-0.12891-0.23438l-9.3633-16.203-24.715-0.003906zm46.867-43.684c0-10.941-8.9023-19.844-19.844-19.844-10.957 0-19.871 8.9023-19.871 19.844 0 5.9375 2.6133 11.473 7.1797 15.281h25.359c4.5625-3.7891 7.1758-9.3242 7.1758-15.281zm-37.461 21.371 2.4531-4.2539c-4.9141-4.3594-7.707-10.527-7.707-17.121 0-12.598 10.262-22.844 22.871-22.844 12.598 0 22.844 10.246 22.844 22.844 0 6.6133-2.793 12.781-7.7031 17.121l2.4531 4.2461c6.3359-5.2305 10.074-13.102 10.074-21.367 0-15.258-12.41-27.668-27.668-27.668-15.273 0-27.695 12.41-27.695 27.668 0 8.2734 3.7383 16.145 10.078 21.375zm-10.504 31.156h56.242v-5.8438h-56.242zm-8.6172-63.215c2.2188 0 4.0234 1.793 4.0234 3.9961v13.406c0 2.2031-1.8047 3.9961-4.0234 3.9961h-10.77c-0.82812 0-1.5-0.67188-1.5-1.5v-18.398c0-0.82812 0.67188-1.5 1.5-1.5zm0 3h-9.2695v15.398h9.2734c0.55469 0 1.0234-0.45703 1.0234-0.99609l-0.003907-13.406c0-0.54688-0.45703-0.99609-1.0234-0.99609zm85.719-1.5v18.398c0 0.82812-0.67188 1.5-1.5 1.5h-10.773c-0.10547 0-0.20313-0.011719-0.30469-0.03125-2.0586-0.15625-3.6914-1.8633-3.6914-3.9648l0.003906-13.406c0-2.2031 1.793-3.9961 3.9922-3.9961h10.773c0.82812 0 1.5 0.67188 1.5 1.5zm-3 16.898v-15.398h-9.2734c-0.54688 0-0.99219 0.44531-0.99219 0.99609v13.406c0 0.53125 0.46484 0.99609 0.99219 0.99609zm-2.8672-9.2109h-4.5352c-0.82812 0-1.5 0.67188-1.5 1.5s0.67188 1.5 1.5 1.5h4.5352c0.82812 0 1.5-0.67188 1.5-1.5s-0.67188-1.5-1.5-1.5zm-44.219-35.152c-0.82813 0-1.5 0.67188-1.5 1.5s0.67187 1.5 1.5 1.5h2.1836c0.82812 0 1.5-0.67188 1.5-1.5s-0.67188-1.5-1.5-1.5z"/>
</svg>